{"title":"Turn On, Tune In, Drop Out (1967, TVRip, XviD)","uid":8747623,"size":448822186,"categoryP":"video","categoryS":"movies","magnet":"?xt=urn:btih:7cdb6f7952a38ace996c70bb183c7f751ecafb22&amp;dn=Turn+On%2C+Tune+In%2C+Drop+Out+%281967%2C+TVRip%2C+XviD%29&amp;tr=udp%3A%2F%2Ftracker.openbittorrent.com%3A80&amp;tr=udp%3A%2F%2Fopen.demonii.com%3A1337&amp;tr=udp%3A%2F%2Ftracker.coppersurfer.tk%3A6969&amp;tr=udp%3A%2F%2Fexodus.desync.com%3A6969","seeders":1,"leechers":1,"uploader":"rpessoa","files":1,"time":1374961365,"description":"5 psychedelic short films, broadcast on the French/German tv channel &quot;arte&quot; on 2007-07-16\n\n1. &quot;Be-In&quot; USA 1967, 7 min\n2. &quot;Beatles Electronique&quot; USA 1966-69, 3 min\n3. &quot;San Francisco&quot; Great Britain 1967/68, 15 min\n4. &quot;Andy Warhol's Exploding Plastic Inevitable&quot; USA/Great Britain 1967, 12 min\n5. &quot;Eyetoon&quot; USA 1967/68, 8 min\n &lt;a href=&quot;\nhttp://www.imdb.com/title/tt0249208/&quot; rel=&quot;nofollow&quot; target=&quot;_NEW&quot;&gt;\nhttp://www.imdb.com/title/tt0249208/&lt;/a&gt;\n\nGeneral\nComplete name                            : TURN ON, TUNE IN, DROP OUT.avi\nFormat                                   : AVI\nFormat/Info                              : Audio Video Interleave\nFile size                                : 428 MiB\nDuration                                 : 48mn 2s\nOverall bit rate                         : 1 246 Kbps\nWriting application                      : Lavf52.93.0\n\nVideo\nID                                       : 0\nFormat                                   : MPEG-4 Visual\nFormat profile                           : Simple@L1\nFormat settings, BVOP                    : No\nFormat settings, QPel                    : No\nFormat settings, GMC                     : No warppoints\nFormat settings, Matrix                  : Default (H.263)\nCodec ID                                 : XVID\nCodec ID/Hint                            : XviD\nDuration                                 : 48mn 2s\nBit rate                                 : 1 105 Kbps\nWidth                                    : 320 pixels\nHeight                                   : 240 pixels\nDisplay aspect ratio                     : 4:3\nFrame rate                               : 25.000 fps\nColor space                              : YUV\nChroma subsampling                       : 4:2:0\nBit depth                                : 8 bits\nScan type                                : Progressive\nCompression mode                         : Lossy\nBits/(Pixel*Frame)                       : 0.576\nStream size                              : 380 MiB (89%)\nWriting library                          : Lavc52.108.0\n\nAudio\nID                                       : 1\nFormat                                   : MPEG Audio\nFormat version                           : Version 1\nFormat profile                           : Layer 3\nMode                                     : Joint stereo\nMode extension                           : MS Stereo\nCodec ID                                 : 55\nCodec ID/Hint                            : MP3\nDuration                                 : 48mn 2s\nBit rate mode                            : Constant\nBit rate                                 : 128 Kbps\nChannel(s)                               : 2 channels\nSampling rate                            : 44.1 KHz\nCompression mode                         : Lossy\nStream size                              : 44.0 MiB (10%)\nAlignment                                : Aligned on interleaves\nInterleave, duration                     : 26 ms (0.65 video frame)","torrent":{"xt":"urn:btih:7cdb6f7952a38ace996c70bb183c7f751ecafb22","amp;dn":"Turn+On%2C+Tune+In%2C+Drop+Out+%281967%2C+TVRip%2C+XviD%29","amp;tr":["udp%3A%2F%2Ftracker.openbittorrent.com%3A80","udp%3A%2F%2Fopen.demonii.com%3A1337","udp%3A%2F%2Ftracker.coppersurfer.tk%3A6969","udp%3A%2F%2Fexodus.desync.com%3A6969"],"infoHash":"7cdb6f7952a38ace996c70bb183c7f751ecafb22","infoHashBuffer":{"type":"Buffer","data":[124,219,111,121,82,163,138,206,153,108,112,187,24,60,127,117,30,202,251,34]},"announce":[],"urlList":[]}}